<?xml version="1.0" encoding="utf-8"?>
<!-- Generator: Adobe Illustrator 24.2.1, SVG Export Plug-In . SVG Version: 6.00 Build 0)  -->
<svg version="1.1" id="图层_1" xmlns="http://www.w3.org/2000/svg" xmlns:xlink="http://www.w3.org/1999/xlink" x="0px" y="0px"
	 viewBox="0 0 708.7 481.9" style="enable-background:new 0 0 708.7 481.9;" xml:space="preserve">
<style type="text/css">
	.st0{fill:#FFFFFF;}
	.st1{fill:#02671C;}
	.st2{fill:#F2EFE3;}
	.st3{fill:#CBC1B1;}
	.st4{fill:#D1CFCD;}
	.st5{fill:#C9BFAD;} 
	.st6{fill:#067B1E;}
	.st7{fill:#05681D;}
	.st8{fill:#039935;}
	.st9{fill:#3E2E23;}
	.st10{fill:#0A0808;}
	.st11{fill:#B63E3E;}
	.st12{fill:#A83C3C;}
	.st13{fill:#993837;}
</style>
<path class="st0" d="M556.5,335.5L556.5,335.5c-0.1-3.2-1.4-6.1-2-9.1c-2.9-12.8-6-25.6-9.1-38.4c-2.8-11.7-5.5-23.3-8.3-35
	c-3-12.7-5.8-25.4-9-38c-1.5-5.9-2.7-11.9-4.2-17.9c-3.1-12.7-6-25.4-9-38.1c-2.8-11.8-5.5-23.6-8.4-35.4
	c-3.2-13.1-6.2-26.2-9.3-39.4c-1.5-6.5-2.8-13.1-4.8-19.5c-0.1-2.3-1-4.5-2.6-6.3c-4.1-5.2-10.9-7.5-17.3-5.9c-0.5,0-0.9,0-1.4,0.1
	l-71.7,14.3l-70.7,14.1c-21.6,4.4-43.3,8.6-64.9,13c-3.8,0.8-7.7,1.2-11.4,2.7c-7,0.9-14.2,9.9-11.4,18.1c0.1,3.6,1.5,7,2.3,10.4
	c2.8,12.3,5.7,24.5,8.7,36.7c2.9,12.1,5.7,24.3,8.6,36.4c3,12.5,5.8,25,8.9,37.4c2.4,9.9,4.5,19.8,6.8,29.7
	c1.3,5.7,3.1,11.4,3.9,17.2c-0.7,0.9-1.1,0.1-1.6-0.3c-2.2-1.9-3.8-4.4-5.8-6.4c-5.3-5.6-10.7-11.1-15.7-17c-0.6-1-1.6-1.7-2.8-1.9
	c-1.1-1-2.4-0.6-3.6-0.6c-8.7,0.3-17.5-0.2-26.3,0.5c-10.3,0.8-20.8-0.2-31.1,0.8c-5.3,0.5-10.6,0.1-16,0.1c-4.8,0-4.8,0-5.7,4.9
	c0,0.2-0.1,0.4-0.2,0.7c-1.2,4.9-2.1,9.9-2.9,14.8c-1.9,10.6-4.3,21.2-6.1,31.8c-1.2,7.1-3.1,14.1-4.2,21.3
	c-0.3,0.9,0.1,1.8,0.9,2.3c2.9,3.2,5.8,6.2,8.7,9.4c6.8,7.5,13.8,14.9,20.8,22.3c3.6,3.9,7.3,7.8,10.9,11.7c0.7,1.1,1.9,1.7,3.2,1.8
	c5.4-0.1,10.9,0.2,16.3-0.2c7.2-0.6,14.3-0.4,21.5-0.4c2,6,4.6,11.7,6.9,17.6c5.3,13.4,10.5,27,15.9,40.4c1.3,3.1,1.9,6.6,4.2,9.3
	c0.4,0.6,0.9,0.4,1.5,0.3c4.1-0.6,8.2-1.2,12.3-1.7c5.8-0.7,11.7-1.7,17.5-2.3c7.5-0.9,15-2.2,22.5-3.2c7.3-1,14.6-1.9,21.9-2.8
	c1-0.1,2-0.8,2.5-1.7c2.1-3.1,4.4-6.2,6.4-9.4c6.6-10.3,13.1-20.6,19.7-30.9c0.7-1.1,1.6-2,2.7-2.6c7.7-1.6,15.4-3.2,23-4.7
	c22.6-4.6,45.3-9.1,67.9-13.6c21.3-4.3,42.6-8.4,63.8-12.8c5.3-0.8,10.6-2,15.9-3.4c0.7,0.1,1.4,0,2-0.3c8.2-3.3,12.6-11.6,9.4-19.9
	c0-0.1,0.1-0.2,0.1-0.2C556.7,335.8,556.6,335.6,556.5,335.5z"/>
<path class="st1" d="M280.2,282.7c-0.8-5.8-2.6-11.5-3.9-17.2c-2.3-9.9-4.4-19.8-6.8-29.7c-3.1-12.4-5.8-24.9-8.9-37.4
	c-2.9-12.1-5.7-24.3-8.6-36.4c-2.9-12.1-5.8-24.5-8.7-36.7c-0.8-3.5-2.2-6.8-2.3-10.4c4.8-0.3,9.6,0.6,14.4,0.9
	c5.6,0.3,11.2,1.2,16.8,1.2c0.6,1.5,1,3,1.5,4.6c2.6,11.8,5.5,23.6,8.3,35.4c3,12.7,5.8,25.4,9,38c1.5,5.9,2.7,11.9,4.2,17.9
	c3.1,12.5,5.9,25.1,8.9,37.7c2.9,12,5.6,24.1,8.5,36c2.1,8.4,4,16.8,5.8,25.3c0.9,3.2,1.6,6.5,2,9.9l-29.8,4.1
	c-0.4-0.8-0.7-1.7-0.9-2.6c-1.5-7.1-3.2-14.1-4.9-21.1C283.4,295.5,282.4,288.9,280.2,282.7z"/>
<path class="st1" d="M545.3,356.4c-5.2,1.5-10.5,2.6-15.9,3.5c-21.3,4.4-42.6,8.5-63.8,12.8c-22.6,4.5-45.3,9.1-67.9,13.6
	c-7.7,1.5-15.4,3.1-23,4.7c-0.4-2.2,1.7-3.4,2.2-5.3c0.7-0.5,0.1-1-0.1-1.5c-3.4-8.6-6.7-17.2-10.1-25.8c-1.1-2.8-1-2.8,1.7-3.4
	c25.9-5.2,51.9-10.3,77.8-15.5c22.5-4.5,45.1-9.1,67.6-13.5c5.4-1.3,10.8-2.3,16.3-3c0,0.8,0.1,1.6,0.4,2.4c0.7,2.4,2.3,4.3,3.2,6.5
	C537.3,340.1,541.7,348.1,545.3,356.4z"/>
<path class="st2" d="M159.1,333.5c-0.8-0.5-1.2-1.4-0.9-2.3c1-7.2,2.9-14.1,4.2-21.3c1.8-10.6,4.1-21.2,6.1-31.8
	c0.9-4.9,1.8-9.9,2.9-14.8c0-0.2,0.2-0.4,0.2-0.7c0.9-4.9,0.9-4.9,5.7-4.9c5.3,0,10.7,0.4,16-0.1c10.4-0.9,20.8,0,31.1-0.8
	c8.7-0.7,17.5-0.2,26.3-0.5c1.2,0,2.6-0.4,3.6,0.6c-0.3,0.9-0.5,1.8-0.6,2.7c-0.9,8.2-3.3,16.2-4.6,24.3c-1,6.6-2.5,13.1-3.9,19.6
	c-1.1,5.3-1.8,10.6-3.1,15.9c-1.1,3.6-1.7,7.4-1.7,11.2c-5.4,0.2-10.8,0.3-16.2,0.5c-11.1,0.5-22.1,0.2-33.2,0.8
	c-9.8,0.5-19.6,0-29.4,0.8C160.7,332.8,159.7,332.6,159.1,333.5z M183.8,305.6c-3.9-0.2-7.3,2.8-7.5,6.7c0,0.1,0,0.2,0,0.2
	c0.3,3.8,3.4,6.8,7.3,6.9c4,0.1,7.4-2.9,7.7-6.8c-0.1-4-3.4-7.1-7.4-7C183.9,305.6,183.8,305.6,183.8,305.6L183.8,305.6z
	 M206.5,287.6c-4.1,0-7.7,3.2-7.7,6.9s3.7,6.9,7.7,6.9c3.8,0,7.1-2.9,7.5-6.7C213.9,290.7,210.5,287.5,206.5,287.6L206.5,287.6z
	 M236.4,276.5c-0.2-4.1-3.7-7.2-7.7-7c-3.8,0.2-6.8,3.3-7,7.1c0,3.8,3.2,6.9,7,6.9c0.2,0,0.4,0,0.6,0c3.8,0.2,6.9-2.8,7.1-6.5
	C236.4,276.8,236.4,276.7,236.4,276.5L236.4,276.5z M222.2,318.3c4.1,0,7.7-3.3,7.6-6.9c-0.1-3.6-3.7-6.7-7.5-6.8
	c-4-0.2-7.3,2.9-7.6,6.9C214.7,315.4,217.8,318.3,222.2,318.3L222.2,318.3z M190.4,284.3c3.9,0.3,7.3-2.6,7.6-6.5c0-0.1,0-0.2,0-0.4
	c-0.1-3.9-3.4-7-7.3-6.9c-3.8-0.3-7.1,2.5-7.5,6.3c0,0.2,0,0.4,0,0.6C183.3,281.5,186.2,284.3,190.4,284.3L190.4,284.3z"/>
<path class="st3" d="M267.6,445.3c-2.3-2.7-2.9-6.2-4.2-9.3c-5.4-13.4-10.6-26.9-15.9-40.4c-2.3-5.8-5-11.7-6.9-17.6
	c0.4-2.8,2.4-4.6,3.8-6.8c2.2-3.6,4.6-7.1,6.9-10.7c2.1-3.3,4.8-6.4,6-10.3c1.5,0,1.9-1.1,2.5-2.1c3.9-6,7.8-11.9,11.7-17.9
	c0.4-0.7,0.7-1.5,1.7-1.5c1.3,3.5,2.4,7,3.9,10.3c2.2,4.7,3.9,9.6,5.8,14.4c2.2,5.4,4.4,10.9,6.4,16.3c3.4,8.7,6.9,17.5,10.4,26.2
	c-1,1.5-2.2,2.9-3.1,4.6c-1.6,2.8-3.4,5.4-5.2,8.1c-3.7,5.7-7.4,11.3-11.1,17c-2.3,3.6-4.4,7.3-6.9,10.7
	C271.3,439.2,269.4,442.2,267.6,445.3z M269.3,375.2c0-2.4-0.7-4.8-2.1-6.9c-1.3-2-3.1-2-4.4,0c-2,2.8-1.7,10,0.5,12.5
	c1.5,1.8,3.3,1.6,4.5-0.4C268.8,378.9,269.4,377.1,269.3,375.2z M280.3,394.3c0.1-2.3-0.5-4.6-1.7-6.6c-1.4-1.9-3.2-1.9-4.5,0
	c-2.3,3.9-2.1,8.7,0.4,12.4c1.5,1.9,3.2,1.8,4.5-0.2C280,398.2,280.4,396.2,280.3,394.3L280.3,394.3z"/>
<path class="st4" d="M267.6,445.3c1.9-3,3.7-6.1,5.8-9c2.4-3.5,4.6-7.2,6.9-10.7c3.7-5.7,7.4-11.3,11.1-17c1.8-2.7,3.6-5.3,5.2-8.1
	c0.9-1.6,2-3,3.1-4.6c2.9-0.4,5.8-0.9,8.8-1.3c5.8-0.8,11.7-1.5,17.4-2.2c7.8-1.1,15.6-2.3,23.5-3.3c6.4-0.9,12.7-1.7,19.1-2.6
	c2.8-0.4,5.6-1.2,8.6-0.8c-0.4,1.9-2.5,3.1-2.2,5.3c-1.1,0.6-2,1.5-2.7,2.6c-6.6,10.3-13.1,20.6-19.7,30.9c-2.1,3.2-4.3,6.3-6.4,9.4
	c-0.5,0.9-1.4,1.5-2.5,1.7c-7.3,0.9-14.6,1.8-21.9,2.8c-7.5,1-15,2.4-22.5,3.2c-5.8,0.7-11.7,1.6-17.5,2.3
	c-4.1,0.5-8.2,1.1-12.3,1.7C268.5,445.7,268,445.8,267.6,445.3z M345.2,405.7c3.2-0.2,6.2-1.4,8.7-3.3c1-0.6,1.9-1.4,2.5-2.3
	c1-1.8,0.5-3.1-1.6-3.5c-3.9-0.8-10.9,2.2-12.8,5.5c-0.7,0.9-0.6,2.1,0.3,2.8c0.3,0.2,0.6,0.4,0.9,0.4
	C343.9,405.5,344.5,405.6,345.2,405.7z M317,422.3c3.9-0.6,7.9-1.7,10.6-5.3c1.6-2.1,0.8-3.9-1.9-4c-4.2-0.1-8.3,1.6-11.2,4.6
	c-1,0.7-1.4,1.9-1.1,3.1C314.1,422.1,315.4,422.1,317,422.3z M290.8,435.4c3.9-0.3,7.6-1.9,10.4-4.7c0.9-0.7,1.3-2,1-3.1
	c-0.5-1.1-1.7-1.7-2.9-1.5c-4.1,0.1-7.9,1.8-10.8,4.7c-0.9,0.7-1.3,2-1,3.1C288.1,435.3,289.5,435.1,290.8,435.4L290.8,435.4z"/>
<path class="st5" d="M257.2,350.1c-1.2,3.9-3.9,7-6,10.3c-2.3,3.6-4.7,7.1-6.9,10.7c-1.4,2.2-3.4,4.1-3.8,6.8
	c-7.2,0-14.3-0.2-21.5,0.4c-5.4,0.5-10.9,0.1-16.3,0.2c-1.3-0.1-2.5-0.7-3.2-1.8c-3.7-3.9-7.3-7.7-10.9-11.7
	c-6.9-7.4-14-14.8-20.8-22.3c-2.9-3.2-5.8-6.3-8.7-9.4c0.7-0.9,1.6-0.7,2.5-0.8c9.8-0.8,19.6-0.3,29.4-0.8
	c11.1-0.5,22.2-0.2,33.2-0.8c5.4-0.2,10.8-0.3,16.2-0.5c4.5,5.6,9.3,11,14.4,16.2C255.8,347.8,257.1,348.5,257.2,350.1z
	 M217.3,350.4c-1.2,0-2.3,0.2-3.4,0.6c-2,0.9-2.2,2-0.8,3.7c2,2.3,4.7,3.1,7.6,3.8c2,0.6,4.1,0.6,6.1,0c2.1-0.8,2.5-2.3,1.1-4
	c-0.6-0.7-1.3-1.3-2.1-1.7C223.2,351.3,220.3,350.5,217.3,350.4L217.3,350.4z"/>
<path class="st6" d="M492.5,64.7c2,6.4,3.3,13,4.8,19.5c3,13.1,6,26.3,9.3,39.4c2.9,11.8,5.6,23.6,8.4,35.4c3,12.7,5.9,25.4,9,38.1
	c1.5,5.9,2.6,11.9,4.2,17.9c3.2,12.6,6,25.4,9,38c2.8,11.7,5.5,23.3,8.3,35c3,12.8,6.2,25.6,9.1,38.4c0.7,3,1.9,5.9,2,9.1
	c-1.2-1.1-2.1-2.4-2.7-3.9c-3.2-7.2-7.9-13.5-11.4-20.5c-0.3-1.1-1.2-2-2.2-2.5c-0.8-1.2-0.5-2.7-0.8-4c-2.7-9.8-4.7-19.8-7.1-29.6
	c-2.9-11.9-5.6-23.8-8.4-35.7c-3-12.6-5.9-25.2-8.9-37.7c-2.9-12-5.6-24.1-8.5-36.1c-3-12.5-5.9-24.9-8.8-37.4
	c-2-8.7-4.3-17.5-6.1-26.3c-0.6-2.8-1.3-5.6-2-8.4c-1.7-6.5-3-13-4.5-19.5C487.8,71,490.3,68,492.5,64.7z"/>
<path class="st4" d="M257.2,350.1c0-1.6-1.4-2.4-2.3-3.3c-5.1-5.1-9.9-10.5-14.4-16.2c0-3.8,0.6-7.6,1.7-11.2
	c1.3-5.3,2-10.6,3.1-15.9c1.5-6.5,2.8-13,3.9-19.6c1.2-8.2,3.7-16.1,4.6-24.3c0.2-0.9,0.4-1.8,0.6-2.7c1.1,0.2,2.1,0.9,2.8,1.9
	c5,5.8,10.4,11.4,15.7,17c2,2.1,3.5,4.6,5.8,6.4c0.5,0.4,0.9,1.2,1.6,0.3c2.1,6.3,3.1,12.9,4.7,19.3c1.7,7,3.4,14,4.9,21.1
	c0.2,0.9,0.6,1.7,0.9,2.6c-4.3,0.6-8.5,1.5-12.9,1.7c-1.6,0.1-3.5,0-4.9,1.3c-1,0-1.3,0.8-1.7,1.5c-3.9,6-7.8,12-11.7,17.9
	C259,349,258.6,350.2,257.2,350.1z M266.2,288.7c-0.1-3-0.5-6-2.9-8.2c-1.7-1.6-3.4-1.5-4.5,0.5c-2,3.4-0.8,10.6,2.3,13.1
	c1.7,1.5,3.2,1.2,4.2-0.7C266,291.9,266.3,290.3,266.2,288.7L266.2,288.7z M264.9,315.1c-0.1,2.9,0.8,5.8,2.5,8.2
	c1.6,1.8,3.6,1.6,4.7-0.5c1.7-3.3,0.8-10-1.7-12.7c-1.7-1.8-3.6-1.5-4.7,0.7C265.1,312.2,264.8,313.6,264.9,315.1z"/>
<path class="st7" d="M252.4,96.7c3.6-1.5,7.6-1.9,11.4-2.7c21.6-4.4,43.3-8.7,64.9-13l70.7-14.1l71.7-14.4c0.4-0.1,0.9-0.1,1.4-0.1
	c-1.6,3.7-2.8,7.6-3.6,11.7c-0.3,0.2-0.6,0.3-0.9,0.4l-60.1,12l-75.1,15l-48.6,9.6c-6.5-0.5-12.8-2-19.3-3
	C260.8,97.5,256.7,96,252.4,96.7z"/>
<path class="st8" d="M540.2,308.6c1.1,0.5,1.9,1.4,2.2,2.5c3.4,7,8.1,13.4,11.4,20.5c0.6,1.5,1.5,2.8,2.7,3.9l0,0
	c0.1,0.2,0.1,0.4,0.2,0.6c3.2,8.3-1.2,16.7-9.4,19.9c-0.6,0.3-1.3,0.4-2,0.3c-3.6-8.3-8.1-16.2-11.7-24.6c-0.9-2.2-2.5-4.1-3.2-6.5
	c-0.3-0.8-0.4-1.6-0.4-2.4c0.4-0.5,1-0.6,1.5-0.8C537.2,320.2,540.8,314.6,540.2,308.6z"/>
<path class="st8" d="M252.4,96.7c4.4-0.6,8.4,0.8,12.6,1.5c6.4,1,12.8,2.5,19.3,3c-5.1,0.8-9.4,4.2-11.3,8.9
	c-0.9,2.2-0.5,4.5-0.7,6.7c-5.6,0-11.2-0.9-16.8-1.2c-4.8-0.3-9.6-1.2-14.4-0.9C238.1,106.6,245.4,97.5,252.4,96.7z"/>
<path class="st8" d="M468.9,64c0.7-4,1.9-7.9,3.6-11.7c6.5-1.5,13.3,0.8,17.4,6c1.6,1.7,2.5,3.9,2.6,6.3c-2.2,3.2-4.7,6.3-7.5,9
	c-1.2-1.9-1.9-4-3.7-5.7C477.8,65.2,473.4,63.7,468.9,64z"/>
<path class="st6" d="M556.7,336.1c0-0.2-0.1-0.4-0.2-0.6c0.1,0.1,0.2,0.3,0.3,0.4C556.8,335.9,556.8,336,556.7,336.1z"/>
<path class="st2" d="M468.9,64c4.5-0.3,8.9,1.2,12.4,4.1c1.8,1.6,2.5,3.7,3.7,5.7c1.5,6.5,2.8,13.1,4.5,19.5c0.7,2.8,1.5,5.6,2,8.4
	c1.9,8.8,4.1,17.5,6.1,26.3c2.9,12.5,5.9,24.9,8.8,37.4c2.9,12,5.7,24.1,8.5,36.1c3,12.6,5.9,25.2,8.9,37.7
	c2.8,11.9,5.5,23.8,8.4,35.7c2.4,9.9,4.4,19.8,7.1,29.6c0.4,1.3,0,2.8,0.8,4c0.6,6-3,11.6-8.7,13.6c-0.5,0.2-1.1,0.2-1.5,0.8
	c-5.5,0.7-10.9,1.7-16.3,3c-22.6,4.4-45.1,9-67.6,13.5c-25.9,5.2-51.9,10.4-77.8,15.5c-2.7,0.5-2.8,0.6-1.7,3.4
	c3.3,8.6,6.7,17.2,10.1,25.8c0.2,0.5,0.8,0.9,0.1,1.5c-2.9-0.4-5.7,0.4-8.6,0.8c-6.4,0.9-12.7,1.7-19.1,2.6
	c-7.8,1-15.6,2.3-23.5,3.3c-5.8,0.8-11.7,1.5-17.4,2.2c-2.9,0.4-5.8,0.9-8.8,1.3c-3.5-8.7-7.1-17.5-10.4-26.2
	c-2.1-5.5-4.3-10.9-6.4-16.3c-1.9-4.8-3.6-9.7-5.8-14.4c-1.5-3.3-2.6-6.9-3.9-10.3c1.5-1.2,3.3-1.2,4.9-1.3
	c4.4-0.3,8.6-1.1,12.9-1.7l29.8-4.1c-0.4-3.3-1.1-6.6-2-9.9c-1.9-8.4-3.8-16.9-5.8-25.3c-2.9-12-5.7-24-8.5-36
	c-3-12.6-5.8-25.2-8.9-37.7c-1.5-5.9-2.7-11.9-4.2-17.9c-3.2-12.6-6-25.4-9-38c-2.8-11.8-5.8-23.5-8.3-35.4
	c-0.4-1.6-0.9-3.1-1.5-4.6c0.2-2.2-0.2-4.5,0.7-6.7c1.9-4.8,6.2-8.2,11.3-8.9l48.6-9.7l75.1-15l60.1-12
	C468.3,64.4,468.6,64.2,468.9,64z M429.5,313.5c1-0.3,2-0.6,3-0.8c4.2-0.8,7-5,6.2-9.2c-0.1-0.5-0.2-1-0.4-1.4
	c-0.4-0.9-0.7-1.9-1-2.9c-1.7-8.5-4.2-16.8-6.1-25.2c-0.5-2.7-1.2-5.4-2.1-8c-0.9-2.2-0.6-4.7,0.6-6.7c1.4-1.8,3.4-3.1,5.7-3.5
	c5.5-1.3,10.9-2.7,16.4-4.2c3.9-1.1,8.1-1.5,11.8-3.6c0.9,0,1.3-0.5,1.5-1.3c0.3,0,0.6-0.2,0.6-0.6c0.7,0,1.3-0.3,1.8-0.8
	c1.9-2.3,3.6-4.7,5-7.3c2.6-3.6,3.9-7.9,3.7-12.3c0.4-2,0.3-4.2-0.4-6.1c-2.6-10.7-5.2-21.3-8-31.9c-2.3-8.6-4.2-17.3-6.3-25.9
	c-0.7-3-1.5-6-2.3-9c-0.9-2.4-1.6-5-1.9-7.5c-0.2-3.9-4.8-7.3-9.1-6.1c-7.1,2.1-14.3,3.7-21.4,5.6c-6.3,1.6-12.5,3.4-18.8,4.8
	c-5.6,1.3-6.8-0.3-8.4-4.1c-0.8-2-1.4-4.1-1.9-6.3c-1-4.4-1.6-8.7-3.4-12.9c-0.4-0.8-0.6-1.6-0.7-2.5c0-3.3-2.5-6-5.7-6.4
	c-3.3-0.3-6.5,0.5-9.3,2.3c-3.6,2.4-3.5,5.9-2.2,9.6c1.5,5.8,2.8,11.8,4.3,17.7c1,3.1,0.5,6.5-1.3,9.2c-1.3,0.9-2.8,1.6-4.4,1.9
	l-19.7,5c-6.6,1.7-13.1,3.4-19.7,5c-2.7,0.5-4.8,2.6-5.2,5.3c-0.5,1.7-0.3,3.5,0.5,5c0,1,0.1,2.1,0.4,3.1c1,4.9,2.4,9.6,3.7,14.4
	c1.4,5.3,2.6,10.8,3.9,16.1c3.1,12.5,6.2,25,9.3,37.6c1.6,6.5,3.3,13,4.9,19.4c1.1,4.4,4.4,6.3,8.4,5.3c0.8-0.1,1.6-0.2,2.4-0.4
	c12.4-3.2,24.8-6.3,37.2-9.6c4-1.1,7-0.4,9.4,3c0.1,0.8,0.3,1.6,0.5,2.4c3,9,4.6,18.5,7.2,27.7c1.1,3.9,1.4,7.9,3.1,11.7
	c1,2.1,2.2,4,4.8,4.4C427,314.3,428.5,314.3,429.5,313.5z M484.9,115.4c0.1-2.7-0.1-5.4-0.6-8.1c-1.1-11.6-5.3-21.6-13.8-29.6
	c-1.2-1.2-2.8-2.1-4.5-2.4c-4.2-0.8-8.5-0.9-12.7-0.3c-10.7,1.5-19.4,7-27.7,13.3c-1.1,0.6-1.5,2.1-0.9,3.2c0,0.1,0.1,0.1,0.1,0.2
	c0.8,1.3,2,0.7,3.1,0.2c4-1.8,8.1-3.3,12.3-4.5c5.1-1.3,10.2-2.4,15.6-1.2c4.7,0.8,8.8,3.9,10.8,8.2c1.1,2.2,1.9,4.4,2.5,6.8
	c1.2,4.7,2.7,9.3,4.6,13.7c1.7,3.8,3.7,7.4,6,10.9c0.6,1,1.5,2.4,2.9,2c1.5-0.4,1.4-1.9,1.5-2.9c0.1-3.3,1.3-6.4,0.6-9.5
	L484.9,115.4z M349.6,376.7c3.8,0.2,7-2.6,7.3-6.4c-0.2-3.8-3.4-6.8-7.3-6.8c-3.8,0-6.9,2.9-7.1,6.7
	C342.7,373.9,345.9,376.8,349.6,376.7C349.6,376.7,349.6,376.7,349.6,376.7z M300.2,336.7c-3.7-0.1-6.9,2.8-7.1,6.5
	c-0.2,3.7,3.6,6.7,7.4,6.6c3.6,0.2,6.6-2.6,6.8-6.2c0-0.2,0-0.4,0-0.6C307.2,339.3,304.3,336.7,300.2,336.7z"/>
<path class="st9" d="M183.8,305.6c4-0.2,7.3,2.9,7.5,6.8c0,0,0,0.1,0,0.1c-0.3,4-3.7,7-7.7,6.8c-3.8,0-7-3-7.3-6.9
	c0.1-3.9,3.4-7,7.3-6.9C183.7,305.6,183.7,305.6,183.8,305.6z"/>
<path class="st9" d="M206.5,287.6c4-0.1,7.3,3.1,7.5,7.1c-0.4,3.8-3.6,6.7-7.5,6.7c-4,0-7.7-3.3-7.7-6.9S202.4,287.6,206.5,287.6z"
	/>
<path class="st9" d="M236.4,276.5c0.1,3.8-2.9,6.9-6.7,6.9c-0.1,0-0.3,0-0.4,0c-3.8,0.4-7.2-2.4-7.5-6.3c0-0.2,0-0.4,0-0.6
	c0.2-4.1,3.6-7.2,7.6-7.1C233.1,269.7,236.2,272.7,236.4,276.5z"/>
<path class="st9" d="M222.2,318.3c-4.4,0-7.5-2.9-7.4-6.9c0.2-4,3.6-7,7.6-6.9c3.8,0.1,7.4,3.3,7.5,6.8
	C229.9,314.8,226.3,318.3,222.2,318.3z"/>
<path class="st9" d="M190.4,284.3c-4.2-0.1-7.2-2.9-7.2-6.8c0-3.8,3.1-6.9,6.9-6.9c0.2,0,0.4,0,0.6,0c3.9-0.1,7.1,3,7.3,6.9
	c-0.1,3.9-3.3,7-7.2,6.9C190.7,284.4,190.6,284.4,190.4,284.3z"/>
<path class="st10" d="M269.3,375.2c0,1.8-0.6,3.6-1.6,5.2c-1.2,2.1-2.9,2.2-4.5,0.4c-2.2-2.5-2.4-9.8-0.5-12.5c1.3-1.9,3.2-2,4.4,0
	C268.6,370.3,269.3,372.8,269.3,375.2z"/>
<path class="st10" d="M280.3,394.3c0.1,2-0.3,3.9-1.2,5.7c-1.3,2-3,2-4.5,0.2c-2.6-3.7-2.7-8.5-0.4-12.4c1.3-1.9,3.1-1.9,4.5,0
	C279.9,389.7,280.4,392,280.3,394.3z"/>
<path class="st10" d="M345.2,405.7c-0.7-0.1-1.3-0.2-1.9-0.4c-1.1-0.2-1.8-1.3-1.5-2.4c0.1-0.3,0.2-0.6,0.4-0.9
	c1.9-3.3,8.9-6.3,12.8-5.5c2,0.4,2.6,1.7,1.6,3.5c-0.7,1-1.5,1.8-2.5,2.3C351.4,404.4,348.3,405.5,345.2,405.7z"/>
<path class="st10" d="M317,422.3c-1.6-0.1-2.9-0.2-3.5-1.6c-0.3-1.2,0.1-2.4,1.1-3.1c2.9-3,7-4.7,11.2-4.6c2.6,0.1,3.5,2,1.9,4
	C324.9,420.6,320.9,421.7,317,422.3z"/>
<path class="st10" d="M290.8,435.3c-1.3-0.2-2.7,0-3.2-1.5c-0.3-1.1,0-2.4,1-3.1c2.9-2.9,6.7-4.6,10.8-4.7c1.2-0.2,2.4,0.4,2.9,1.5
	c0.4,1.1,0,2.4-1,3.1C298.4,433.4,294.7,435.1,290.8,435.3z"/>
<path class="st9" d="M217.3,350.4c3,0.1,5.9,0.9,8.6,2.4c0.8,0.4,1.5,1,2.1,1.7c1.5,1.7,0.9,3.2-1.1,4c-2,0.6-4.1,0.6-6.1,0
	c-2.8-0.6-5.6-1.5-7.6-3.8c-1.5-1.7-1.2-2.8,0.8-3.7C215,350.6,216.1,350.4,217.3,350.4z"/>
<path class="st11" d="M266.2,288.7c0.2,1.6-0.1,3.2-0.9,4.7c-1.1,1.9-2.5,2.1-4.2,0.7c-3-2.5-4.3-9.7-2.3-13.1
	c1.1-1.9,2.8-2.1,4.5-0.5C265.7,282.7,266.1,285.6,266.2,288.7z"/>
<path class="st11" d="M264.9,315.1c-0.1-1.4,0.2-2.9,0.8-4.2c1.1-2.2,2.9-2.5,4.7-0.7c2.5,2.6,3.4,9.4,1.7,12.7
	c-1.1,2.1-3.1,2.3-4.7,0.5C265.7,320.9,264.8,318,264.9,315.1z"/>
<path class="st11" d="M463.4,248c-3.7,2.1-7.9,2.4-11.8,3.6c-5.4,1.5-10.9,2.9-16.4,4.2c-2.3,0.4-4.3,1.6-5.7,3.5
	c-0.9,0-1.9-0.1-2.5,0.7c-2.1,3.1-3.6,6.5-2.8,10.3c1.9,9.8,4.5,19.4,6.9,29.1c0.8,2.6,1.2,5.4,1.1,8.2c-0.1,1.7-1.3,3.1-2.9,3.5
	c-1.8,0.6-2.8-0.7-3.5-2.1c-0.5-1-1-2.1-1.4-3.2c-1-2.9-1.8-5.9-2.3-9c-1.5-6.3-3.3-12.4-4.7-18.7c-0.7-3.2-1.9-6.2-3.7-8.9
	c-0.6-1.3-2-2-3.4-1.7c-2.4-3.4-5.4-4.1-9.4-3c-12.4,3.3-24.8,6.4-37.2,9.6c-0.8,0.2-1.6,0.3-2.4,0.4c-0.3-0.4-0.5-0.9-0.8-1.1
	c-2.3-1.3-3.9-3.6-4.4-6.3c-1.5-5.5-2.7-11-4.1-16.4c-2.7-10.5-5.3-21-7.9-31.5c-2.7-11.1-5.8-22-8.2-33.2
	c-1.7-7.7,0.2-9.3,6.5-11.4c0.4-0.1,0.9-0.2,1.3-0.3c9.9-2.6,19.9-4.9,29.7-7.8c8.6-2.5,13-7.7,10.9-17.7c-0.9-4.9-2-9.7-3.4-14.4
	c-0.7-2-0.2-4.3,1.4-5.8c2-2.2,3.9-2.2,5.8,0.1c1.5,1.8,2.5,3.9,2.8,6.2c0.5,2.7,1.3,5.4,1.9,8.1c0.6,3.4,2,6.7,4.1,9.5
	c2.6,3.4,6.7,5.2,10.9,4.8c3.5-0.3,7-1,10.5-2c9-2.2,17.7-5,26.8-6.7c4.5-0.8,7.4,1.1,8.6,5.7c2.7,10.7,5.4,21.4,8.1,32.1
	c2.7,10.7,5.4,21.9,8.2,32.8c1,3.3,1.5,6.7,1.5,10.2c-0.2,4.9-1.8,9.6-4.7,13.5c-0.8,0.9-1.2,2-1.2,3.2c0,0.4-0.3,0.5-0.6,0.6
	c-0.7-0.1-1.3,0.4-1.4,1.1C463.4,247.9,463.4,247.9,463.4,248z M352.7,188.3c-1.2-0.1-2.3,0.6-2.7,1.7c-2,3.2-1.6,6.8-1,10.2
	c1.5,7.6,3.7,15.2,5.6,22.8c1.1,4.5,2.2,8.9,3.2,13.4c0.9,4.4,2.2,8.7,3.7,12.9c1.8,4.7,6.7,9,12.5,8.6c3.1-0.2,6.2-0.7,9.2-1.5
	c5.1-1.1,10-2.6,14.9-4.4c4-1.7,7.3-4.2,8.1-8.7c0.5-2.5,0.4-5.1-0.1-7.6c-1.6-6.8-3.3-13.6-4.9-20.4c-1.5-6.3-3.4-12.4-4.7-18.7
	c-0.6-3.8-1.8-7.4-3.4-10.8c-0.8-1.6-1.3-3.9-4-3.7c-2.8-4.5-4.7-5.4-9.7-4.1c-6.9,1.8-13.8,3.6-20.7,5.3
	C356,183.8,353.7,185.7,352.7,188.3L352.7,188.3z M407.1,174.4c-2.7,0.5-3.3,2.5-3.5,4.9c-0.2,4.9,0.3,9.9,1.8,14.7
	c2.5,10.2,5.1,20.5,7.7,30.7c0.7,2.9,1.4,5.8,2.3,8.7c0.8,3,2.5,5.7,4.9,7.7c3.8,3,8.2,3.3,12.8,2.4c5.8-1.2,11.7-2.8,17.3-4.5
	c5.1-1.5,9.2-4.4,10.6-9.9c0.9-3.5,0-6.9-0.8-10.2c-2.9-11.7-5.8-23.4-8.7-35.1c-0.9-3.6-1.9-7.1-3.1-10.6c-0.7-2.1-1.7-4.4-4.4-5
	c-2.7-4.5-4.8-5.4-9.9-4.2c-6.6,1.6-13.1,3.4-19.7,4.9C411.2,169.4,408.5,171.5,407.1,174.4L407.1,174.4z"/>
<path class="st12" d="M465.6,246.1c0-1.2,0.5-2.3,1.2-3.2c2.9-3.9,4.5-8.7,4.7-13.5c0-3.5-0.5-6.9-1.5-10.2
	c-2.8-10.9-5.4-21.9-8.2-32.8c-2.7-11-5.4-21.4-8.1-32.1c-1.2-4.6-4.1-6.5-8.6-5.7c-9.1,1.6-17.8,4.5-26.8,6.7
	c-3.4,1-6.9,1.7-10.5,2c-4.2,0.4-8.3-1.4-10.9-4.8c-2.1-2.8-3.5-6-4.1-9.5c-0.5-2.7-1.5-5.3-1.9-8.1c-0.3-2.3-1.3-4.5-2.8-6.2
	c-1.9-2.3-3.9-2.3-5.8-0.1c-1.5,1.5-2.1,3.8-1.4,5.8c1.4,4.7,2.5,9.6,3.4,14.4c2.2,10.1-2.2,15.2-10.9,17.7
	c-9.8,2.9-19.8,5.2-29.7,7.8c-0.5,0.1-0.9,0.2-1.3,0.3c-6.3,2-8.2,3.7-6.5,11.4c2.4,11.1,5.4,22.1,8.2,33.2
	c2.6,10.5,5.2,21,7.9,31.5c1.5,5.4,2.7,10.9,4.1,16.4c0.4,2.6,2.1,4.9,4.4,6.3c0.4,0.2,0.6,0.7,0.8,1.1c-4.1,1-7.3-1-8.4-5.3
	c-1.6-6.5-3.3-13-4.9-19.4c-3.1-12.5-6.2-25.1-9.3-37.6c-1.3-5.4-2.6-10.8-3.9-16.1c-1.2-4.8-2.7-9.5-3.7-14.4c-0.3-1-0.4-2-0.4-3.1
	c0.6,0,1.2-0.3,1.5-0.8c1.5-2.9,4.3-4.9,7.5-5.5c10.4-2.8,20.8-5.6,31.2-8.2c2.4-0.8,4.7-1.8,6.9-3.1c1.2-0.9,2.2-2.1,2.7-3.5
	c0.5-0.9-0.5-1-1.2-1.2c1.8-2.7,2.2-6.1,1.3-9.2c-1.5-5.8-2.9-11.8-4.3-17.7c1.8-0.5,2.3-2.3,3.2-3.5c3.1-3.9,11.7-2.9,13.2,2.9
	c1.5,5.1,3.2,10,4.3,15.3c1,4.9,3.8,9,9.4,9.7c2.4,0.2,4.8,0,7.1-0.7c10.5-2.7,20.9-5.5,31.4-7.9c5.7-1.3,10.1,0.9,11.7,6.6
	c2.2,7.1,4.1,14.3,5.6,21.6c1.1,6.1,3.4,11.9,4.5,18c1,5.6,3.1,11,4.2,16.7c0.9,5,2.4,9.8,3.6,14.7c0.1,1.2,0.7,2.2,1.6,3
	c0.2,4.4-1.1,8.7-3.6,12.2c-1.4,2.6-3.1,5-5,7.3C467,245.9,466.3,246.1,465.6,246.1z"/>
<path class="st0" d="M484.8,115.3c0.6,3.1-0.6,6.2-0.7,9.4c0,1-0.1,2.6-1.5,2.9c-1.3,0.3-2.3-1-2.9-2c-2.3-3.4-4.3-7.1-6-10.9
	c-1.9-4.4-3.4-9-4.6-13.7c-0.6-2.3-1.4-4.6-2.5-6.8c-2.1-4.3-6.1-7.4-10.8-8.2c-5.4-1.2-10.5,0-15.6,1.2c-4.2,1.2-8.3,2.7-12.2,4.5
	c-1.1,0.5-2.2,1.1-3.1-0.2c-0.7-1.1-0.4-2.5,0.6-3.2c0.1,0,0.1-0.1,0.2-0.1c8.3-6.3,17-11.8,27.7-13.3c4.2-0.6,8.5-0.5,12.7,0.3
	c1.7,0.3,3.3,1.2,4.5,2.4c8.5,8.1,12.7,18.1,13.8,29.6C484.8,109.9,485,112.6,484.8,115.3z"/>
<path class="st13" d="M476.1,225.8c-0.9-0.7-1.5-1.8-1.6-2.9c-1.2-4.9-2.6-9.8-3.6-14.7c-1.1-5.7-3.1-11.1-4.2-16.7
	c-1.1-6.1-3.4-11.9-4.5-18c-1.5-7.3-3.4-14.5-5.6-21.6c-1.6-5.7-6-7.9-11.7-6.6c-10.5,2.4-20.9,5.2-31.4,7.9
	c-2.3,0.7-4.7,0.9-7.1,0.7c-5.7-0.7-8.4-4.8-9.4-9.7c-1.1-5.2-2.9-10.2-4.3-15.3c-1.6-5.9-10-6.8-13.2-2.9c-1,1.2-1.5,2.9-3.2,3.5
	c-1.3-3.7-1.3-7.3,2.2-9.6c2.7-1.8,6-2.6,9.3-2.3c3.3,0.3,5.7,3.1,5.7,6.4c0,0.9,0.3,1.7,0.7,2.5c1.8,4.1,2.4,8.6,3.4,12.9
	c0.5,2.1,1.1,4.2,1.9,6.3c1.6,3.8,2.8,5.3,8.4,4.1c6.3-1.5,12.5-3.2,18.8-4.8c7.2-1.8,14.3-3.5,21.4-5.6c4.4-1.3,8.9,2.2,9.1,6.1
	c0.3,2.6,1,5.1,1.9,7.5c0.9,3,1.6,6,2.3,9c2.1,8.6,4,17.3,6.3,25.9c2.8,10.6,5.4,21.2,8,31.9C476.3,221.7,476.5,223.8,476.1,225.8z"
	/>
<path class="st12" d="M410.3,267.6c1.4-0.3,2.8,0.4,3.4,1.7c1.8,2.7,3.1,5.7,3.7,8.9c1.4,6.3,3.2,12.4,4.7,18.7c0.6,3,1.4,6.1,2.3,9
	c0.4,1.1,0.9,2.1,1.4,3.2c0.7,1.5,1.7,2.7,3.5,2.1c1.6-0.4,2.8-1.9,2.9-3.5c0.1-2.8-0.3-5.5-1.1-8.2c-2.4-9.7-5-19.3-6.9-29.1
	c-0.8-3.9,0.7-7.2,2.8-10.3c0.6-0.9,1.6-0.8,2.5-0.7c-1.2,2-1.5,4.5-0.6,6.7c0.9,2.6,1.6,5.3,2.1,8c1.9,8.4,4.5,16.7,6.1,25.2
	c0.3,1,0.6,2,1,2.9c1.6,4-0.3,8.6-4.3,10.2c-0.5,0.2-0.9,0.3-1.4,0.4c-1,0.2-2,0.6-3,0.8l-3.5,0.1c-2.6-0.4-3.8-2.3-4.8-4.4
	c-1.7-3.7-2-7.8-3.1-11.7c-2.6-9.1-4.2-18.6-7.2-27.7C410.6,269.1,410.4,268.3,410.3,267.6z"/>
<path class="st13" d="M379.2,156.3c0.6,0.1,1.7,0.2,1.2,1.2c-0.5,1.4-1.5,2.6-2.7,3.5c-2.2,1.3-4.5,2.3-6.9,3.1
	c-10.4,2.7-20.8,5.5-31.2,8.2c-3.2,0.6-5.9,2.7-7.5,5.5c-0.3,0.5-0.9,0.8-1.5,0.8c-0.8-1.5-1-3.3-0.5-5c0.4-2.7,2.5-4.8,5.2-5.3
	c6.6-1.6,13.1-3.3,19.7-5l19.7-5.1C376.4,157.9,377.9,157.2,379.2,156.3z"/>
<path class="st10" d="M349.6,376.7c-3.7,0.2-6.9-2.7-7.1-6.4c0,0,0-0.1,0-0.1c0.2-3.8,3.3-6.7,7.1-6.7c3.9-0.1,7.1,2.9,7.3,6.8
	C356.5,374,353.3,376.9,349.6,376.7z"/>
<path class="st10" d="M300.2,336.7c4.1,0,7,2.6,7.1,6.4c0.1,3.6-2.7,6.6-6.3,6.7c-0.2,0-0.4,0-0.6,0c-3.8,0.1-7.5-2.9-7.4-6.6
	C293.3,339.5,296.5,336.6,300.2,336.7z"/>
<path class="st5" d="M425.9,313.6l3.5-0.1C428.4,314.3,427,314.4,425.9,313.6z"/>
<path class="st12" d="M463.4,248c0-0.7,0.5-1.3,1.2-1.3c0.1,0,0.2,0,0.3,0C464.8,247.5,464.3,248,463.4,248z"/>
<path class="st2" d="M407.2,174.4c1.3-3,4.1-5,7.3-5.5c6.6-1.5,13.1-3.3,19.7-4.9c5.1-1.3,7.3-0.4,9.9,4.2c0.8,4.4,2.2,8.7,3.2,13.1
	c1.9,8.3,4.4,16.5,6.1,24.9c0.6,2.9,1.5,5.8,2.2,8.7c1.1,4.2,2.8,8.4,0.8,12.8c-1.3,1.3-2.9,2.2-4.6,2.8c-4.5,1.2-8.9,2.3-13.4,3.4
	c-3.8,0.9-7.6,1.8-11.4,2.7c-1.8,0.5-3.8-0.3-4.7-1.9c-1.1-1.6-1.9-3.4-2.4-5.3c-2.8-13-6.3-25.8-9.5-38.6c-0.6-2.5-1.2-4.9-1.9-7.4
	c-0.1-1.2-0.4-2.5-0.7-3.7C407.1,178.1,406.9,176.2,407.2,174.4z"/>
<path class="st2" d="M352.8,188.3c1-2.7,3.3-4.6,6.1-5c6.9-1.7,13.8-3.6,20.7-5.3c5-1.3,6.9-0.5,9.7,4.1c2.4,7.6,3.7,15.4,5.8,23.1
	c2.7,9.5,4.7,19.2,7,28.8c0.7,2.6,0.6,5.3-0.5,7.8c-1.1,1.2-2.4,2.1-4,2.6c-7.9,2-15.8,4-23.8,6.1c-2.1,0.6-4.4,0.1-6-1.4
	c-1.1-1.2-1.8-2.7-2-4.4c-2.5-9.6-4.9-19.2-7.3-28.8c-1.6-6.5-2.9-13-5-19.4C353.4,193.9,352.1,191.2,352.8,188.3z"/>
<path class="st12" d="M456.4,227.7c2-4.4,0.3-8.7-0.8-12.8c-0.8-2.9-1.6-5.8-2.2-8.7c-1.8-8.3-4.2-16.5-6.1-24.9
	c-1-4.4-2.4-8.7-3.2-13.1c2.7,0.6,3.6,2.8,4.4,5c1.2,3.5,2.2,7,3.1,10.6c2.9,11.7,5.8,23.4,8.7,35.1c0.8,3.4,1.7,6.8,0.8,10.2
	c-1.5,5.5-5.5,8.4-10.6,9.9c-5.7,1.7-11.5,3.3-17.3,4.5c-4.6,1-8.9,0.7-12.8-2.4c-2.4-2-4.1-4.7-4.9-7.7c-0.9-2.9-1.5-5.8-2.3-8.7
	c-2.6-10.2-5.2-20.5-7.7-30.7c-1.4-4.7-2-9.7-1.8-14.6c0.2-2.3,0.8-4.4,3.5-4.9c-0.3,1.8-0.1,3.7,0.6,5.4c0.3,1.2,0.5,2.4,0.7,3.7
	c-1.8,0.4-1.3,1.5-1,2.7c1.7,7.3,3.3,14.6,5.2,21.8c2.1,7.9,4,15.8,6.1,23.7c2.4,8.7,7.6,9.6,13.6,8.6c4.9-0.9,9.7-2.1,14.4-3.4
	c3.4-0.7,6.5-2.5,8.9-5C456.7,230.6,457.4,229.3,456.4,227.7z"/>
<path class="st12" d="M401.6,241.9c1-2.5,1.2-5.2,0.5-7.8c-2.3-9.6-4.4-19.3-7-28.8c-2.2-7.7-3.4-15.5-5.8-23.1c2.6-0.2,3.1,2,4,3.7
	c1.6,3.4,2.8,7.1,3.4,10.8c1.3,6.3,3.2,12.5,4.7,18.7c1.6,6.8,3.3,13.6,4.9,20.4c0.5,2.5,0.6,5.1,0.1,7.6c-0.8,4.6-4.1,7.1-8.1,8.7
	c-4.8,1.8-9.8,3.3-14.9,4.4c-3,0.8-6.1,1.3-9.2,1.5c-5.8,0.3-10.7-3.9-12.5-8.6c-1.5-4.2-2.8-8.5-3.7-12.9c-1-4.5-2.1-8.9-3.2-13.4
	c-1.9-7.6-4-15.1-5.6-22.8c-0.7-3.3-1-6.9,1-10.2c0.5-1.1,1.5-1.8,2.7-1.7c-0.7,2.9,0.6,5.6,0.8,8.3c-0.6,0.1-1.4,0.4-1.1,1
	c0.8,2,0.4,4.1,0.9,6.1c1.5,5.6,3,11.1,4.3,16.7c1.5,6.4,3.2,12.7,4.6,19.1c0.7,2.9,1.5,5.8,2.7,8.6c1.3,3.8,5,6.3,9.1,6.1
	c8.4-0.1,16.3-2.6,24-5.8c1.5-0.6,2.8-1.7,3.6-3.1C402.3,244.3,402.3,242.9,401.6,241.9z"/>
<path class="st13" d="M456.4,227.7c1,1.6,0.3,2.8-0.7,4c-2.4,2.5-5.5,4.3-8.9,5c-4.8,1.3-9.6,2.5-14.4,3.4c-6,1.1-11.3,0.2-13.6-8.6
	c-2.1-7.9-4-15.8-6.1-23.7c-1.9-7.3-3.4-14.6-5.2-21.8c-0.3-1.2-0.8-2.3,1-2.7c0.6,2.5,1.2,4.9,1.9,7.4c3.2,12.8,6.7,25.7,9.5,38.6
	c0.5,1.9,1.3,3.7,2.4,5.3c1,1.6,2.9,2.4,4.7,1.9c3.8-0.9,7.6-1.8,11.4-2.7c4.5-1.1,8.9-2.2,13.4-3.4
	C453.5,230,455.1,229,456.4,227.7z"/>
<path class="st13" d="M401.6,241.9c0.8,1.1,0.8,2.5,0,3.6c-0.8,1.4-2.1,2.5-3.6,3.1c-7.7,3.2-15.6,5.7-24,5.8
	c-4,0.2-7.7-2.3-9.1-6.1c-1.1-2.8-2-5.6-2.7-8.6c-1.5-6.4-3.2-12.7-4.6-19.1c-1.2-5.6-2.9-11.1-4.3-16.7c-0.5-2-0.1-4.1-0.9-6.1
	c-0.2-0.6,0.6-0.9,1.1-1c2,6.4,3.4,12.9,5,19.4c2.3,9.6,4.8,19.2,7.3,28.8c0.2,1.6,0.9,3.2,2,4.4c1.6,1.5,3.9,2,6,1.4
	c7.9-2.1,15.8-4.1,23.8-6.1C399.2,244,400.6,243.1,401.6,241.9z"/>
</svg>
