<svg id="图层_1" data-name="图层 1" xmlns="http://www.w3.org/2000/svg" viewBox="0 0 708.66 481.89"><defs><style>.cls-1{fill:#fff;}.cls-2{fill:#02671c;}.cls-3{fill:#f2efe3;}.cls-4{fill:#cbc1b1;}.cls-5{fill:#d1cfcd;}.cls-6{fill:#c9bfad;}.cls-7{fill:#067b1e;}.cls-8{fill:#05681d;}.cls-9{fill:#039935;}.cls-10{fill:#3e2e23;}.cls-11{fill:#0a0808;}.cls-12{fill:#b63e3e;}.cls-13{fill:#a83c3c;}.cls-14{fill:#993837;}</style></defs><path class="cls-1" d="M94.94,2.33H613.72V479.56H94.94ZM470.21,310.26l0,0c-.1-2.17-.93-4.16-1.39-6.24-2-8.82-4.13-17.59-6.22-26.37-1.91-8-3.79-16-5.7-24.05-2.08-8.7-4-17.45-6.2-26.12-1-4.07-1.85-8.19-2.85-12.27-2.13-8.69-4.11-17.42-6.2-26.13-1.93-8.09-3.77-16.2-5.76-24.28-2.22-9-4.27-18-6.36-27.07-1-4.47-1.93-9-3.32-13.37a7,7,0,0,0-1.79-4.3A11.73,11.73,0,0,0,412.51,116a7.14,7.14,0,0,0-.93.07l-49.24,9.85-48.53,9.7c-14.85,3-29.71,5.9-44.56,8.92-2.62.53-5.32.79-7.82,1.83-4.82.61-9.78,6.81-7.8,12.41.1,2.49,1.06,4.78,1.61,7.16q2.92,12.63,6,25.22c2,8.32,3.89,16.66,5.88,25,2.05,8.55,4,17.13,6.09,25.67,1.68,6.77,3.11,13.6,4.69,20.39.91,3.93,2.11,7.8,2.68,11.81-.5.59-.78.08-1.13-.2-1.54-1.27-2.59-3-4-4.41-3.66-3.82-7.33-7.63-10.77-11.66a3,3,0,0,0-1.91-1.31c-.73-.71-1.66-.44-2.49-.41-6,.19-12-.12-18.06.35-7.09.56-14.25-.11-21.38.53-3.63.32-7.3.06-11,.06-3.29,0-3.29,0-3.93,3.33,0,.15-.1.3-.14.45-.82,3.36-1.43,6.78-2,10.17-1.33,7.29-2.94,14.52-4.16,21.83-.83,4.9-2.16,9.69-2.86,14.61a1.37,1.37,0,0,0,.6,1.59c2,2.17,4,4.29,6,6.47,4.68,5.17,9.5,10.21,14.27,15.31,2.49,2.66,5,5.33,7.49,8a2.85,2.85,0,0,0,2.19,1.23c3.73-.07,7.49.16,11.2-.17,4.92-.43,9.83-.25,14.74-.29,1.34,4.12,3.16,8.06,4.76,12.08,3.67,9.23,7.2,18.52,10.94,27.73.87,2.15,1.33,4.54,2.91,6.38.3.38.65.28,1.06.22,2.81-.41,5.63-.83,8.45-1.15,4-.46,8-1.14,12-1.59,5.17-.59,10.31-1.5,15.47-2.21,5-.69,10-1.31,15-1.94a2.34,2.34,0,0,0,1.71-1.14c1.47-2.15,3-4.27,4.41-6.47,4.53-7.06,9-14.15,13.54-21.22a5.47,5.47,0,0,1,1.88-1.79c5.27-1.08,10.54-2.18,15.82-3.24q23.31-4.69,46.62-9.36c14.61-2.92,29.23-5.79,43.83-8.76a98.68,98.68,0,0,0,10.89-2.36,2.68,2.68,0,0,0,1.39-.23c5.63-2.24,8.62-7.95,6.42-13.68,0-.06.08-.13.07-.16A2.92,2.92,0,0,0,470.21,310.26Z"/><path class="cls-2" d="M280.54,274c-.57-4-1.77-7.88-2.68-11.81-1.58-6.79-3-13.62-4.69-20.39-2.12-8.54-4-17.12-6.09-25.67-2-8.33-3.9-16.67-5.88-25s-4-16.8-6-25.22c-.55-2.38-1.51-4.67-1.61-7.16,3.32-.21,6.6.42,9.9.6,3.84.2,7.66.8,11.52.83a33.07,33.07,0,0,1,1,3.15c1.77,8.12,3.8,16.18,5.72,24.27,2.07,8.7,4,17.44,6.2,26.11,1,4.07,1.84,8.19,2.85,12.26,2.11,8.61,4.08,17.26,6.14,25.88,2,8.24,3.83,16.51,5.86,24.73,1.42,5.77,2.73,11.56,4,17.36a45.2,45.2,0,0,1,1.34,6.78l-20.43,2.79a14.49,14.49,0,0,1-.63-1.78c-1-4.85-2.18-9.67-3.37-14.48C282.69,282.81,282,278.3,280.54,274Z"/><path class="cls-2" d="M462.54,324.61A98.68,98.68,0,0,1,451.65,327c-14.6,3-29.22,5.84-43.83,8.76q-23.31,4.66-46.62,9.36c-5.28,1.06-10.55,2.16-15.82,3.24-.25-1.51,1.2-2.32,1.5-3.61.46-.37.05-.69-.08-1-2.31-5.9-4.63-11.78-6.92-17.69-.75-1.93-.7-1.95,1.16-2.32q26.7-5.32,53.41-10.66c15.47-3.09,30.93-6.25,46.41-9.3a104.2,104.2,0,0,1,11.21-2.06,5,5,0,0,0,.27,1.62c.46,1.62,1.56,2.93,2.2,4.44C457,313.47,460.06,318.9,462.54,324.61Z"/><path class="cls-3" d="M197.36,308.9a1.37,1.37,0,0,1-.6-1.59c.7-4.92,2-9.71,2.86-14.61,1.22-7.31,2.83-14.54,4.16-21.83.61-3.39,1.22-6.81,2-10.17,0-.15.11-.3.14-.45.64-3.34.64-3.33,3.93-3.33,3.66,0,7.33.26,11-.06,7.13-.64,14.29,0,21.38-.53,6-.47,12-.16,18.06-.35.83,0,1.76-.3,2.49.41a14.48,14.48,0,0,0-.44,1.84c-.6,5.65-2.29,11.09-3.14,16.7-.7,4.51-1.69,9-2.65,13.44-.78,3.61-1.22,7.28-2.14,10.89a25.16,25.16,0,0,0-1.17,7.69c-3.72.14-7.43.2-11.15.37-7.59.36-15.2.17-22.8.52-6.72.31-13.47,0-20.19.53C198.48,308.42,197.81,308.3,197.36,308.9Zm17-19.14a4.87,4.87,0,0,0-5.15,4.74,5.06,5.06,0,0,0,5,4.71,5.13,5.13,0,0,0,5.29-4.68A4.92,4.92,0,0,0,214.35,289.76Zm15.58-12.34c-2.81,0-5.28,2.2-5.28,4.73s2.54,4.76,5.28,4.75a5.16,5.16,0,0,0,5.12-4.63A5,5,0,0,0,229.93,277.42Zm20.53-7.61a5.05,5.05,0,0,0-10.09.06,4.76,4.76,0,0,0,5.2,4.69A4.68,4.68,0,0,0,250.46,269.81Zm-9.78,28.65c2.83,0,5.29-2.27,5.21-4.77s-2.52-4.62-5.13-4.67a5,5,0,0,0-5.19,4.71C235.55,296.47,237.71,298.47,240.68,298.46Zm-21.78-23.3a4.83,4.83,0,0,0,5.21-4.69,4.9,4.9,0,0,0-5-4.73,4.73,4.73,0,0,0-5.15,4.73C214,273.19,216,275.11,218.9,275.16Z"/><path class="cls-4" d="M271.84,385.62c-1.58-1.84-2-4.23-2.91-6.38-3.74-9.21-7.27-18.5-10.94-27.73-1.6-4-3.42-8-4.76-12.08.25-1.9,1.65-3.18,2.59-4.7,1.54-2.47,3.18-4.87,4.75-7.32,1.47-2.29,3.29-4.42,4.13-7.1,1,0,1.28-.76,1.71-1.42,2.66-4.1,5.34-8.2,8-12.31.3-.46.5-1,1.18-1,.89,2.37,1.63,4.79,2.69,7.08,1.5,3.22,2.66,6.58,4,9.87,1.48,3.73,3,7.46,4.42,11.22,2.3,6,4.75,12,7.14,18-.71,1-1.49,2-2.11,3.13-1.08,1.92-2.34,3.74-3.55,5.59-2.54,3.88-5.11,7.75-7.64,11.64-1.59,2.44-3.05,5-4.72,7.35C274.38,381.46,273.11,383.54,271.84,385.62Zm1.23-48.07a8.47,8.47,0,0,0-1.42-4.72c-.88-1.38-2.14-1.35-3,0-1.34,1.9-1.15,6.89.33,8.6,1,1.21,2.24,1.13,3.06-.28A6.62,6.62,0,0,0,273.07,337.55Zm7.54,13.08a7.84,7.84,0,0,0-1.15-4.53c-.94-1.3-2.19-1.27-3.07,0a7.86,7.86,0,0,0,.3,8.5c1,1.27,2.2,1.24,3.07-.11A7.34,7.34,0,0,0,280.61,350.63Z"/><path class="cls-5" d="M271.84,385.62c1.27-2.08,2.54-4.16,4-6.16,1.67-2.38,3.13-4.91,4.72-7.35,2.53-3.89,5.1-7.76,7.64-11.64,1.21-1.85,2.47-3.67,3.55-5.59.62-1.11,1.4-2.09,2.11-3.13,2-.3,4-.63,6.06-.9,4-.53,8-1,11.94-1.52,5.37-.74,10.74-1.57,16.11-2.29,4.37-.59,8.73-1.16,13.09-1.77,1.93-.27,3.87-.83,5.87-.55-.3,1.29-1.75,2.1-1.5,3.61a5.47,5.47,0,0,0-1.88,1.79c-4.52,7.07-9,14.16-13.54,21.22-1.41,2.2-2.94,4.32-4.41,6.47a2.34,2.34,0,0,1-1.71,1.14c-5,.63-10,1.25-15,1.94-5.16.71-10.3,1.62-15.47,2.21-4,.45-8,1.13-12,1.59-2.82.32-5.64.74-8.45,1.15C272.49,385.9,272.14,386,271.84,385.62Zm53.27-27.13a11.36,11.36,0,0,0,6-2.24,5.54,5.54,0,0,0,1.73-1.61c.69-1.26.31-2.15-1.08-2.43-2.69-.54-7.48,1.52-8.8,3.78a1.37,1.37,0,0,0,.83,2.22A8.55,8.55,0,0,0,325.11,358.49Zm-19.3,11.35c2.67-.41,5.42-1.17,7.28-3.61,1.1-1.43.53-2.7-1.27-2.77a10.32,10.32,0,0,0-7.68,3.14,2,2,0,0,0-.73,2.13C303.79,369.7,304.72,369.76,305.81,369.84Zm-18,9a11.21,11.21,0,0,0,7.17-3.25,2,2,0,0,0,.66-2.15,1.84,1.84,0,0,0-2-1,10.8,10.8,0,0,0-7.42,3.22,2,2,0,0,0-.66,2.14C285.94,378.77,286.92,378.66,287.78,378.8Z"/><path class="cls-6" d="M264.7,320.31c-.84,2.68-2.66,4.81-4.13,7.1-1.57,2.45-3.21,4.85-4.75,7.32-.94,1.52-2.34,2.8-2.59,4.7-4.91,0-9.82-.14-14.74.29-3.71.33-7.47.1-11.2.17a2.85,2.85,0,0,1-2.19-1.23c-2.51-2.65-5-5.32-7.49-8-4.77-5.1-9.59-10.14-14.27-15.31-2-2.18-4-4.3-6-6.47.45-.6,1.12-.48,1.74-.53,6.72-.54,13.47-.22,20.19-.53,7.6-.35,15.21-.16,22.8-.52,3.72-.17,7.43-.23,11.15-.37a144.22,144.22,0,0,0,9.88,11.1C263.77,318.69,264.67,319.21,264.7,320.31Zm-27.37.2a5.65,5.65,0,0,0-2.31.43c-1.39.63-1.53,1.37-.55,2.53,1.36,1.61,3.26,2.15,5.19,2.59a7.24,7.24,0,0,0,4.2,0c1.43-.52,1.75-1.57.78-2.75a5.18,5.18,0,0,0-1.44-1.19A13.25,13.25,0,0,0,237.33,320.51Z"/><path class="cls-7" d="M426.23,124.4c1.39,4.39,2.29,8.9,3.32,13.37,2.09,9,4.14,18.07,6.36,27.07,2,8.08,3.83,16.19,5.76,24.28,2.09,8.71,4.07,17.44,6.2,26.13,1,4.08,1.81,8.2,2.85,12.27,2.21,8.67,4.12,17.42,6.2,26.12,1.91,8,3.79,16,5.7,24.05,2.09,8.78,4.25,17.55,6.22,26.37.46,2.08,1.29,4.07,1.39,6.23a7.64,7.64,0,0,1-1.86-2.7c-2.22-4.91-5.44-9.26-7.8-14.08a2.79,2.79,0,0,0-1.53-1.72c-.56-.83-.31-1.83-.56-2.74-1.85-6.73-3.2-13.57-4.87-20.34-2-8.16-3.85-16.36-5.8-24.53-2.06-8.63-4.06-17.28-6.12-25.91-2-8.25-3.86-16.51-5.84-24.76q-3.08-12.82-6.05-25.68c-1.4-6-2.95-12-4.22-18.06-.4-1.93-.87-3.85-1.38-5.77-1.18-4.43-2.08-8.93-3.1-13.41A40.55,40.55,0,0,0,426.23,124.4Z"/><path class="cls-5" d="M264.7,320.31c0-1.1-.93-1.62-1.58-2.26a144.22,144.22,0,0,1-9.88-11.1,25.16,25.16,0,0,1,1.17-7.69c.92-3.61,1.36-7.28,2.14-10.89,1-4.47,1.95-8.93,2.65-13.44.85-5.61,2.54-11.05,3.14-16.7a14.48,14.48,0,0,1,.44-1.84,3,3,0,0,1,1.91,1.31c3.44,4,7.11,7.84,10.77,11.66,1.36,1.43,2.41,3.14,4,4.41.35.28.63.79,1.13.2,1.44,4.33,2.15,8.84,3.24,13.26,1.19,4.81,2.36,9.63,3.37,14.48a14.49,14.49,0,0,0,.63,1.78c-2.95.43-5.86,1-8.85,1.2-1.08.08-2.38,0-3.34.87-.68,0-.88.56-1.18,1-2.66,4.11-5.34,8.21-8,12.31C266,319.55,265.69,320.35,264.7,320.31Zm6.2-42.18c-.06-2.08-.35-4.09-2-5.64-1.17-1.12-2.32-1-3.1.34-1.37,2.33-.52,7.26,1.56,9,1.16,1,2.18.82,2.91-.48A6.08,6.08,0,0,0,270.9,278.13ZM270,296.27a9.64,9.64,0,0,0,1.71,5.66c1.11,1.26,2.48,1.12,3.23-.32,1.17-2.26.55-6.88-1.18-8.69-1.17-1.23-2.47-1.06-3.2.47A6.07,6.07,0,0,0,270,296.27Z"/><path class="cls-8" d="M261.43,146.32c2.5-1,5.2-1.3,7.82-1.83,14.85-3,29.71-6,44.56-8.92l48.53-9.7L411.58,116a7.14,7.14,0,0,1,.93-.07,35,35,0,0,0-2.44,8,3.37,3.37,0,0,1-.64.3l-41.26,8.26-51.52,10.29L283.3,149.4c-4.47-.34-8.82-1.39-13.24-2.07C267.2,146.9,264.39,145.89,261.43,146.32Z"/><path class="cls-9" d="M459,291.79a2.79,2.79,0,0,1,1.53,1.72c2.36,4.82,5.58,9.17,7.8,14.08a7.64,7.64,0,0,0,1.86,2.7l0,0c.05.15.1.29.14.44,2.2,5.73-.79,11.44-6.42,13.68a2.68,2.68,0,0,1-1.39.23c-2.48-5.71-5.57-11.14-8-16.88-.64-1.51-1.74-2.82-2.2-4.44a5,5,0,0,1-.27-1.62c.25-.36.66-.39,1-.53A9,9,0,0,0,459,291.79Z"/><path class="cls-9" d="M261.43,146.32c3-.43,5.77.58,8.63,1,4.42.68,8.77,1.73,13.24,2.07a10,10,0,0,0-7.74,6.14c-.64,1.54-.37,3.08-.51,4.62-3.86,0-7.68-.63-11.52-.83-3.3-.18-6.58-.81-9.9-.6C251.65,153.13,256.61,146.93,261.43,146.32Z"/><path class="cls-9" d="M410.07,123.92a35,35,0,0,1,2.44-8,11.73,11.73,0,0,1,11.93,4.15,7,7,0,0,1,1.79,4.3,40.55,40.55,0,0,1-5.13,6.19c-.8-1.32-1.31-2.78-2.55-3.88A11.86,11.86,0,0,0,410.07,123.92Z"/><path class="cls-7" d="M470.35,310.7c0-.15-.09-.29-.14-.44a2.92,2.92,0,0,1,.21.28S470.37,310.64,470.35,310.7Z"/><path class="cls-3" d="M410.07,123.92a11.86,11.86,0,0,1,8.48,2.79c1.24,1.1,1.75,2.56,2.55,3.88,1,4.48,1.92,9,3.1,13.41.51,1.92,1,3.84,1.38,5.77,1.27,6.06,2.82,12,4.22,18.06q3,12.84,6.05,25.68c2,8.25,3.88,16.51,5.84,24.76,2.06,8.63,4.06,17.28,6.12,25.91,1.95,8.17,3.79,16.37,5.8,24.53,1.67,6.77,3,13.61,4.87,20.34.25.91,0,1.91.56,2.74a9,9,0,0,1-6,9.35c-.36.14-.77.17-1,.53a104.2,104.2,0,0,0-11.21,2.06c-15.48,3-30.94,6.21-46.41,9.3q-26.7,5.36-53.41,10.66c-1.86.37-1.91.39-1.16,2.32,2.29,5.91,4.61,11.79,6.92,17.69.13.33.54.65.08,1-2-.28-3.94.28-5.87.55-4.36.61-8.72,1.18-13.09,1.77-5.37.72-10.74,1.55-16.11,2.29-4,.54-8,1-11.94,1.52-2,.27-4,.6-6.06.9-2.39-6-4.84-12-7.14-18-1.43-3.76-2.94-7.49-4.42-11.22-1.31-3.29-2.47-6.65-4-9.87-1.06-2.29-1.8-4.71-2.69-7.08,1-.84,2.26-.79,3.34-.87,3-.2,5.9-.77,8.85-1.2l20.43-2.79a45.2,45.2,0,0,0-1.34-6.78c-1.29-5.8-2.6-11.59-4-17.36-2-8.22-3.89-16.49-5.86-24.73-2.06-8.62-4-17.27-6.14-25.88-1-4.07-1.82-8.19-2.85-12.26-2.2-8.67-4.13-17.41-6.2-26.11-1.92-8.09-3.95-16.15-5.72-24.27a33.07,33.07,0,0,0-1-3.15c.14-1.54-.13-3.08.51-4.62a10,10,0,0,1,7.74-6.14l33.35-6.63,51.52-10.29,41.26-8.26A3.37,3.37,0,0,0,410.07,123.92ZM383,295.18c.69-.18,1.37-.41,2.06-.56a5.38,5.38,0,0,0,3.94-7.29,15,15,0,0,1-.68-2c-1.15-5.83-2.88-11.52-4.21-17.31a41,41,0,0,0-1.44-5.51,5.19,5.19,0,0,1,.42-4.59,6.4,6.4,0,0,1,3.92-2.38c3.76-.9,7.51-1.84,11.23-2.88,2.71-.76,5.58-1,8.1-2.44.63,0,.92-.33,1-.89.24,0,.41-.13.44-.38a1.75,1.75,0,0,0,1.25-.53,30.09,30.09,0,0,0,3.44-5A13.49,13.49,0,0,0,415,235a8.16,8.16,0,0,0-.28-4.22c-1.76-7.32-3.54-14.62-5.46-21.89-1.56-5.9-2.89-11.85-4.31-17.78-.5-2.08-1-4.15-1.59-6.21a22.52,22.52,0,0,1-1.3-5.17c-.13-2.67-3.29-5-6.26-4.17-4.87,1.43-9.81,2.57-14.72,3.83-4.3,1.1-8.57,2.3-12.9,3.29-3.81.88-4.68-.19-5.76-2.79a28.92,28.92,0,0,1-1.32-4.31c-.72-3-1.12-6-2.35-8.86a4.25,4.25,0,0,1-.45-1.72,4.38,4.38,0,0,0-3.94-4.36,9.85,9.85,0,0,0-6.35,1.58c-2.45,1.63-2.41,4.07-1.54,6.59,1,4,1.9,8.1,2.95,12.12a7.47,7.47,0,0,1-.87,6.33,7.93,7.93,0,0,1-3,1.28L332,192c-4.51,1.15-9,2.33-13.54,3.44a4.38,4.38,0,0,0-3.57,3.65,4.57,4.57,0,0,0,.35,3.45,7.52,7.52,0,0,0,.29,2.11c.7,3.33,1.67,6.59,2.52,9.88.95,3.67,1.79,7.38,2.71,11.06q3.23,12.88,6.38,25.79c1.09,4.45,2.25,8.89,3.37,13.34.75,3,3,4.34,5.79,3.66a14.73,14.73,0,0,0,1.64-.25c8.51-2.17,17-4.3,25.51-6.59,2.74-.74,4.81-.26,6.43,2.07a10.8,10.8,0,0,0,.32,1.62c2.08,6.21,3.14,12.69,4.93,19,.75,2.65.95,5.45,2.15,8,.69,1.45,1.53,2.75,3.3,3A2,2,0,0,0,383,295.18Zm38.07-136a27.11,27.11,0,0,0-.38-5.54c-.75-7.93-3.63-14.8-9.48-20.34a6.09,6.09,0,0,0-3.08-1.65,25.59,25.59,0,0,0-8.69-.18c-7.35,1-13.29,4.78-19,9.13a1.6,1.6,0,0,0-.54,2.29c.57.91,1.34.47,2.1.16a58.89,58.89,0,0,1,8.46-3.06c3.53-.87,7-1.65,10.73-.85a10.11,10.11,0,0,1,7.42,5.64,22.19,22.19,0,0,1,1.7,4.66,61.84,61.84,0,0,0,3.14,9.41,50.55,50.55,0,0,0,4.12,7.46c.44.68,1,1.64,2,1.36s.95-1.3,1-2C420.61,163.4,421.47,161.25,421,159.13ZM328.17,338.56a4.74,4.74,0,0,0,5-4.39,4.93,4.93,0,0,0-5-4.65,4.81,4.81,0,0,0-4.85,4.57A4.66,4.66,0,0,0,328.17,338.56Zm-33.91-27.47a4.75,4.75,0,0,0-4.87,4.47c-.12,2.52,2.47,4.61,5.06,4.55a4.46,4.46,0,0,0,4.67-4.62C299.08,312.86,297.1,311.07,294.26,311.09Z"/><path class="cls-10" d="M214.35,289.76a4.92,4.92,0,0,1,5.15,4.77,5.13,5.13,0,0,1-5.29,4.68,5.06,5.06,0,0,1-5-4.71A4.87,4.87,0,0,1,214.35,289.76Z"/><path class="cls-10" d="M229.93,277.42a5,5,0,0,1,5.12,4.85,5.16,5.16,0,0,1-5.12,4.63c-2.74,0-5.28-2.27-5.28-4.75S227.12,277.41,229.93,277.42Z"/><path class="cls-10" d="M250.46,269.81a4.68,4.68,0,0,1-4.89,4.75,4.76,4.76,0,0,1-5.2-4.69,5.05,5.05,0,0,1,10.09-.06Z"/><path class="cls-10" d="M240.68,298.46c-3,0-5.13-2-5.11-4.73a5,5,0,0,1,5.19-4.71c2.61.05,5.05,2.28,5.13,4.67S243.51,298.44,240.68,298.46Z"/><path class="cls-10" d="M218.9,275.16c-2.91-.05-4.92-2-4.92-4.69a4.73,4.73,0,0,1,5.15-4.73,4.9,4.9,0,0,1,5,4.73A4.83,4.83,0,0,1,218.9,275.16Z"/><path class="cls-11" d="M273.07,337.55a6.62,6.62,0,0,1-1.08,3.56c-.82,1.41-2,1.49-3.06.28-1.48-1.71-1.67-6.7-.33-8.6.91-1.31,2.17-1.34,3,0A8.47,8.47,0,0,1,273.07,337.55Z"/><path class="cls-11" d="M280.61,350.63a7.34,7.34,0,0,1-.85,3.88c-.87,1.35-2.09,1.38-3.07.11a7.86,7.86,0,0,1-.3-8.5c.88-1.29,2.13-1.32,3.07,0A7.84,7.84,0,0,1,280.61,350.63Z"/><path class="cls-11" d="M325.11,358.49a8.55,8.55,0,0,1-1.33-.28A1.37,1.37,0,0,1,323,356c1.32-2.26,6.11-4.32,8.8-3.78,1.39.28,1.77,1.17,1.08,2.43a5.54,5.54,0,0,1-1.73,1.61A11.36,11.36,0,0,1,325.11,358.49Z"/><path class="cls-11" d="M305.81,369.84c-1.09-.08-2-.14-2.4-1.11a2,2,0,0,1,.73-2.13,10.32,10.32,0,0,1,7.68-3.14c1.8.07,2.37,1.34,1.27,2.77C311.23,368.67,308.48,369.43,305.81,369.84Z"/><path class="cls-11" d="M287.78,378.8c-.86-.14-1.84,0-2.23-1.05a2,2,0,0,1,.66-2.14,10.8,10.8,0,0,1,7.42-3.22,1.84,1.84,0,0,1,2,1,2,2,0,0,1-.66,2.15A11.21,11.21,0,0,1,287.78,378.8Z"/><path class="cls-10" d="M237.33,320.52a13.11,13.11,0,0,1,5.87,1.62,5.18,5.18,0,0,1,1.44,1.19c1,1.18.65,2.23-.78,2.75a7.24,7.24,0,0,1-4.2,0c-1.93-.44-3.83-1-5.19-2.59-1-1.16-.84-1.9.55-2.53A5.48,5.48,0,0,1,237.33,320.52Z"/><path class="cls-12" d="M270.9,278.13a6.08,6.08,0,0,1-.59,3.23c-.73,1.3-1.75,1.45-2.91.48-2.08-1.75-2.93-6.68-1.56-9,.78-1.33,1.93-1.46,3.1-.34C270.55,274,270.84,276.05,270.9,278.13Z"/><path class="cls-12" d="M270,296.27a6.07,6.07,0,0,1,.56-2.88c.73-1.53,2-1.7,3.2-.47,1.73,1.81,2.35,6.43,1.18,8.69-.75,1.44-2.12,1.58-3.23.32A9.64,9.64,0,0,1,270,296.27Z"/><path class="cls-12" d="M406.3,250.2c-2.52,1.43-5.39,1.68-8.1,2.44-3.72,1-7.47,2-11.23,2.88a6.4,6.4,0,0,0-3.92,2.38c-.64,0-1.33-.1-1.74.51-1.44,2.14-2.46,4.43-1.94,7.08,1.33,6.72,3.06,13.35,4.73,20a16.86,16.86,0,0,1,.75,5.61,2.67,2.67,0,0,1-2,2.43c-1.21.39-1.9-.48-2.38-1.46-.35-.71-.66-1.44-.95-2.17a45.5,45.5,0,0,1-1.61-6.17c-1-4.3-2.28-8.52-3.22-12.84a17.38,17.38,0,0,0-2.57-6.08,2.11,2.11,0,0,0-2.33-1.15c-1.62-2.33-3.69-2.81-6.43-2.07-8.48,2.29-17,4.42-25.51,6.59a14.73,14.73,0,0,1-1.64.25c-.19-.25-.32-.6-.57-.74a6.14,6.14,0,0,1-3-4.3c-1-3.75-1.83-7.52-2.8-11.26-1.88-7.18-3.65-14.39-5.42-21.59-1.87-7.59-3.95-15.13-5.6-22.77-1.15-5.3.16-6.41,4.47-7.81.3-.09.61-.16.92-.24,6.8-1.76,13.65-3.35,20.39-5.35,5.92-1.75,8.93-5.26,7.45-12.16a98.92,98.92,0,0,0-2.36-9.9,3.86,3.86,0,0,1,.94-4c1.36-1.48,2.71-1.48,4,.07a8.73,8.73,0,0,1,1.93,4.29c.31,1.88.91,3.68,1.27,5.54a15.31,15.31,0,0,0,2.79,6.49,8.36,8.36,0,0,0,7.47,3.27,37.49,37.49,0,0,0,7.18-1.39c6.15-1.48,12.17-3.45,18.4-4.58,3.1-.57,5.1.75,5.9,3.9,1.84,7.35,3.7,14.69,5.53,22.05s3.7,15,5.6,22.52a24.4,24.4,0,0,1,1.05,7,16.86,16.86,0,0,1-3.2,9.29,3.49,3.49,0,0,0-.85,2.18c0,.25-.2.35-.44.38A.86.86,0,0,0,406.3,250.2Zm-76-41a1.87,1.87,0,0,0-1.87,1.15c-1.34,2.23-1.13,4.7-.68,7,1.06,5.25,2.55,10.42,3.84,15.62.76,3.07,1.49,6.13,2.21,9.21a66.62,66.62,0,0,0,2.57,8.87c1.26,3.26,4.57,6.16,8.6,5.93a33.44,33.44,0,0,0,6.3-1,72.37,72.37,0,0,0,10.21-3c2.72-1.14,5-2.87,5.55-6a13,13,0,0,0-.07-5.2c-1.1-4.68-2.29-9.34-3.38-14-1-4.3-2.33-8.52-3.21-12.86a28.21,28.21,0,0,0-2.32-7.44c-.58-1.13-.92-2.66-2.72-2.53-1.9-3.12-3.22-3.68-6.65-2.8-4.73,1.22-9.46,2.49-14.2,3.66A5.31,5.31,0,0,0,330.34,209.24Zm37.36-9.53c-1.84.36-2.26,1.74-2.4,3.33a30,30,0,0,0,1.21,10.06c1.75,7,3.53,14.07,5.29,21.1.5,2,.93,4,1.55,6a10.52,10.52,0,0,0,3.37,5.3c2.63,2.08,5.61,2.29,8.77,1.63,4-.85,8-1.91,11.91-3.09,3.49-1.05,6.29-3,7.28-6.81.62-2.37,0-4.71-.55-7q-3-12.06-6-24.1c-.61-2.45-1.28-4.89-2.12-7.27-.51-1.46-1.17-3-3-3.4-1.84-3.11-3.28-3.74-6.81-2.86-4.51,1.12-9,2.36-13.51,3.38A6.5,6.5,0,0,0,367.7,199.71Z"/><path class="cls-13" d="M407.77,248.93a3.49,3.49,0,0,1,.85-2.18,16.86,16.86,0,0,0,3.2-9.29,24.4,24.4,0,0,0-1.05-7c-1.9-7.5-3.73-15-5.6-22.52s-3.69-14.7-5.53-22.05c-.8-3.15-2.8-4.47-5.9-3.9-6.23,1.13-12.25,3.1-18.4,4.58a37.49,37.49,0,0,1-7.18,1.39,8.36,8.36,0,0,1-7.47-3.27,15.31,15.31,0,0,1-2.79-6.49c-.36-1.86-1-3.66-1.27-5.54a8.73,8.73,0,0,0-1.93-4.29c-1.32-1.55-2.67-1.55-4-.07a3.86,3.86,0,0,0-.94,4,98.92,98.92,0,0,1,2.36,9.9c1.48,6.9-1.53,10.41-7.45,12.16-6.74,2-13.59,3.59-20.39,5.35-.31.08-.62.15-.92.24-4.31,1.4-5.62,2.51-4.47,7.81,1.65,7.64,3.73,15.18,5.6,22.77,1.77,7.2,3.54,14.41,5.42,21.59,1,3.74,1.83,7.51,2.8,11.26a6.14,6.14,0,0,0,3,4.3c.25.14.38.49.57.74-2.81.68-5-.66-5.79-3.66-1.12-4.45-2.28-8.89-3.37-13.34q-3.15-12.91-6.38-25.79c-.92-3.68-1.76-7.39-2.71-11.06-.85-3.29-1.82-6.55-2.52-9.88a7.52,7.52,0,0,1-.29-2.11,1.11,1.11,0,0,0,1-.54,7.51,7.51,0,0,1,5.13-3.79c7.14-1.9,14.27-3.81,21.43-5.65a24.51,24.51,0,0,0,4.72-2.13,5,5,0,0,0,1.86-2.4c.34-.64-.37-.69-.81-.79a7.47,7.47,0,0,0,.87-6.33c-1.05-4-2-8.08-2.95-12.12,1.21-.34,1.57-1.55,2.23-2.37,2.16-2.66,8-2,9.05,2,1,3.49,2.2,6.89,2.95,10.47.71,3.35,2.58,6.15,6.48,6.64a12.84,12.84,0,0,0,4.86-.48c7.18-1.86,14.34-3.77,21.56-5.45,3.94-.92,6.93.61,8.06,4.5A147.28,147.28,0,0,1,405.47,199c.76,4.17,2.34,8.17,3.12,12.37.72,3.87,2.14,7.57,2.87,11.46.64,3.4,1.64,6.74,2.44,10.11A3.08,3.08,0,0,0,415,235a13.49,13.49,0,0,1-2.49,8.39,30.09,30.09,0,0,1-3.44,5A1.75,1.75,0,0,1,407.77,248.93Z"/><path class="cls-1" d="M421,159.13c.44,2.12-.42,4.27-.5,6.48,0,.71-.1,1.76-1,2s-1.58-.68-2-1.36a50.55,50.55,0,0,1-4.12-7.46,61.84,61.84,0,0,1-3.14-9.41,22.19,22.19,0,0,0-1.7-4.66,10.11,10.11,0,0,0-7.42-5.64c-3.73-.8-7.2,0-10.73.85A58.89,58.89,0,0,0,382,143c-.76.31-1.53.75-2.1-.16a1.6,1.6,0,0,1,.54-2.29c5.7-4.35,11.64-8.1,19-9.13a25.59,25.59,0,0,1,8.69.18,6.09,6.09,0,0,1,3.08,1.65c5.85,5.54,8.73,12.41,9.48,20.34A27.11,27.11,0,0,1,421,159.13Z"/><path class="cls-14" d="M415,235A3.08,3.08,0,0,1,413.9,233c-.8-3.37-1.8-6.71-2.44-10.11-.73-3.89-2.15-7.59-2.87-11.46-.78-4.2-2.36-8.2-3.12-12.37a147.28,147.28,0,0,0-3.86-14.86c-1.13-3.89-4.12-5.42-8.06-4.5-7.22,1.68-14.38,3.59-21.56,5.45a12.84,12.84,0,0,1-4.86.48c-3.9-.49-5.77-3.29-6.48-6.64-.75-3.58-2-7-2.95-10.47-1.1-4.07-6.89-4.69-9.05-2-.66.82-1,2-2.23,2.37-.87-2.52-.91-5,1.54-6.59a9.85,9.85,0,0,1,6.35-1.58,4.38,4.38,0,0,1,3.94,4.36,4.25,4.25,0,0,0,.45,1.72c1.23,2.83,1.63,5.89,2.35,8.86a28.92,28.92,0,0,0,1.32,4.31c1.08,2.6,1.95,3.67,5.76,2.79,4.33-1,8.6-2.19,12.9-3.29,4.91-1.26,9.85-2.4,14.72-3.83,3-.86,6.13,1.5,6.26,4.17a22.52,22.52,0,0,0,1.3,5.17c.59,2.06,1.09,4.13,1.59,6.21,1.42,5.93,2.75,11.88,4.31,17.78,1.92,7.27,3.7,14.57,5.46,21.89A8.16,8.16,0,0,1,415,235Z"/><path class="cls-13" d="M369.83,263.65a2.11,2.11,0,0,1,2.33,1.15,17.38,17.38,0,0,1,2.57,6.08c.94,4.32,2.22,8.54,3.22,12.84a45.5,45.5,0,0,0,1.61,6.17c.29.73.6,1.46.95,2.17.48,1,1.17,1.85,2.38,1.46a2.67,2.67,0,0,0,2-2.43,16.86,16.86,0,0,0-.75-5.61c-1.67-6.64-3.4-13.27-4.73-20-.52-2.65.5-4.94,1.94-7.08.41-.61,1.1-.54,1.74-.51a5.19,5.19,0,0,0-.42,4.59,41,41,0,0,1,1.44,5.51c1.33,5.79,3.06,11.48,4.21,17.31a15,15,0,0,0,.68,2,5.38,5.38,0,0,1-3.94,7.29c-.69.15-1.37.38-2.06.56l-2.43.07c-1.77-.28-2.61-1.58-3.3-3-1.2-2.53-1.4-5.33-2.15-8-1.79-6.28-2.85-12.76-4.93-19A10.8,10.8,0,0,1,369.83,263.65Z"/><path class="cls-14" d="M348.5,187.28c.44.1,1.15.15.81.79a5,5,0,0,1-1.86,2.4,24.51,24.51,0,0,1-4.72,2.13c-7.16,1.84-14.29,3.75-21.43,5.65a7.51,7.51,0,0,0-5.13,3.79,1.11,1.11,0,0,1-1,.54,4.57,4.57,0,0,1-.35-3.45,4.38,4.38,0,0,1,3.57-3.65c4.52-1.11,9-2.29,13.54-3.44l13.53-3.48A7.93,7.93,0,0,0,348.5,187.28Z"/><path class="cls-11" d="M328.17,338.56a4.66,4.66,0,0,1-4.9-4.47,4.81,4.81,0,0,1,4.85-4.57,4.93,4.93,0,0,1,5,4.65A4.74,4.74,0,0,1,328.17,338.56Z"/><path class="cls-11" d="M294.26,311.09c2.84,0,4.82,1.77,4.86,4.4a4.46,4.46,0,0,1-4.67,4.62c-2.59.06-5.18-2-5.06-4.55A4.75,4.75,0,0,1,294.26,311.09Z"/><path class="cls-6" d="M380.53,295.25l2.43-.07A2,2,0,0,1,380.53,295.25Z"/><path class="cls-13" d="M406.3,250.2a.86.86,0,0,1,1-.89C407.22,249.87,406.93,250.24,406.3,250.2Z"/><path class="cls-3" d="M367.7,199.71a6.5,6.5,0,0,1,5-3.78c4.53-1,9-2.26,13.51-3.38,3.53-.88,5-.25,6.81,2.86.55,3.05,1.5,6,2.17,9,1.29,5.73,3,11.36,4.2,17.09.44,2,1,4,1.54,6,.78,2.86,1.92,5.79.56,8.82a9.19,9.19,0,0,1-3.19,1.94c-3.06.8-6.13,1.57-9.2,2.33-2.61.64-5.24,1.25-7.85,1.87a2.87,2.87,0,0,1-3.24-1.33,12,12,0,0,1-1.66-3.65c-1.93-8.89-4.3-17.68-6.5-26.5-.42-1.69-.85-3.37-1.27-5.06a17.25,17.25,0,0,0-.47-2.52A6.73,6.73,0,0,1,367.7,199.71Z"/><path class="cls-3" d="M330.34,209.24a5.31,5.31,0,0,1,4.18-3.43c4.74-1.17,9.47-2.44,14.2-3.66,3.43-.88,4.75-.32,6.65,2.8,1.63,5.2,2.51,10.59,4,15.85,1.84,6.54,3.24,13.2,4.83,19.8a8.29,8.29,0,0,1-.32,5.36,6.1,6.1,0,0,1-2.74,1.79q-8.16,2.07-16.31,4.19a4.43,4.43,0,0,1-4.13-.95,5.31,5.31,0,0,1-1.39-3c-1.7-6.57-3.39-13.15-5-19.76-1.07-4.45-2-8.94-3.41-13.31C330.78,213.05,329.86,211.21,330.34,209.24Z"/><path class="cls-13" d="M401.49,236.31c1.36-3,.22-6-.56-8.82-.54-2-1.1-4-1.54-6-1.24-5.73-2.91-11.36-4.2-17.09-.67-3-1.62-5.95-2.17-9,1.83.4,2.49,1.94,3,3.4.84,2.38,1.51,4.82,2.12,7.27q3,12,6,24.1c.57,2.3,1.17,4.64.55,7-1,3.77-3.79,5.76-7.28,6.81-3.93,1.18-7.89,2.24-11.91,3.09-3.16.66-6.14.45-8.77-1.63a10.52,10.52,0,0,1-3.37-5.3c-.62-2-1.05-4-1.55-6-1.76-7-3.54-14.06-5.29-21.1A30,30,0,0,1,365.3,203c.14-1.59.56-3,2.4-3.33a6.73,6.73,0,0,0,.41,3.68,17.25,17.25,0,0,1,.47,2.52c-1.21.25-.88,1.06-.69,1.85,1.2,5,2.26,10,3.56,14.94,1.41,5.41,2.72,10.85,4.17,16.26,1.62,6,5.22,6.62,9.36,5.88,3.33-.6,6.63-1.43,9.9-2.33a11.66,11.66,0,0,0,6.13-3.43C401.71,238.25,402.2,237.39,401.49,236.31Z"/><path class="cls-13" d="M363.87,246a8.29,8.29,0,0,0,.32-5.36c-1.59-6.6-3-13.26-4.83-19.8-1.48-5.26-2.36-10.65-4-15.85,1.8-.13,2.14,1.4,2.72,2.53a28.21,28.21,0,0,1,2.32,7.44c.88,4.34,2.21,8.56,3.21,12.86,1.09,4.68,2.28,9.34,3.38,14a13,13,0,0,1,.07,5.2c-.55,3.14-2.83,4.87-5.55,6a72.37,72.37,0,0,1-10.21,3,33.44,33.44,0,0,1-6.3,1c-4,.23-7.34-2.67-8.6-5.93a66.62,66.62,0,0,1-2.57-8.87c-.72-3.08-1.45-6.14-2.21-9.21-1.29-5.2-2.78-10.37-3.84-15.62-.45-2.25-.66-4.72.68-7a1.87,1.87,0,0,1,1.87-1.15c-.48,2,.44,3.81.56,5.73-.4.07-.94.26-.78.68.53,1.37.28,2.82.63,4.21,1,3.82,2.09,7.61,2.93,11.47,1,4.39,2.21,8.73,3.18,13.12a39.51,39.51,0,0,0,1.82,5.87,6.24,6.24,0,0,0,6.22,4.2c5.78-.08,11.18-1.8,16.46-4a5.32,5.32,0,0,0,2.48-2.14A2.06,2.06,0,0,0,363.87,246Z"/><path class="cls-14" d="M401.49,236.31c.71,1.08.22,1.94-.48,2.77a11.66,11.66,0,0,1-6.13,3.43c-3.27.9-6.57,1.73-9.9,2.33-4.14.74-7.74.14-9.36-5.88-1.45-5.41-2.76-10.85-4.17-16.26-1.3-5-2.36-10-3.56-14.94-.19-.79-.52-1.6.69-1.85.42,1.69.85,3.37,1.27,5.06,2.2,8.82,4.57,17.61,6.5,26.5a12,12,0,0,0,1.66,3.65,2.87,2.87,0,0,0,3.24,1.33c2.61-.62,5.24-1.23,7.85-1.87,3.07-.76,6.14-1.53,9.2-2.33A9.19,9.19,0,0,0,401.49,236.31Z"/><path class="cls-14" d="M363.87,246a2.06,2.06,0,0,1,0,2.44,5.32,5.32,0,0,1-2.48,2.14c-5.28,2.18-10.68,3.9-16.46,4a6.24,6.24,0,0,1-6.22-4.2,39.51,39.51,0,0,1-1.82-5.87c-1-4.39-2.22-8.73-3.18-13.12-.84-3.86-2-7.65-2.93-11.47-.35-1.39-.1-2.84-.63-4.21-.16-.42.38-.61.78-.68,1.38,4.37,2.34,8.86,3.41,13.31,1.6,6.61,3.29,13.19,5,19.76a5.31,5.31,0,0,0,1.39,3,4.43,4.43,0,0,0,4.13.95q8.16-2.12,16.31-4.19A6.1,6.1,0,0,0,363.87,246Z"/></svg>